<svg xmlns="http://www.w3.org/2000/svg">
  <defs>
    <symbol id="limited" viewBox="0 0 111 62" fill="none">
      <g clip-path="url(#clip0_216_1320)">
        <path d="M30.833 0L49.333 18.6L43.167 24.8L24.667 6.2L30.833 0Z" fill="#F09418"/>
        <path d="M86.333 6.19995L111 31L86.333 55.7999L80.167 49.5999L98.667 31L80.167 12.4L86.333 6.19995Z" fill="#F09418" fill-opacity="0.35"/>
        <path d="M67.833 37.2L61.667 43.4L80.167 62L86.333 55.7999L67.833 37.2Z" fill="#F09418"/>
        <path d="M24.667 6.19995L30.833 12.4L12.333 31L30.833 49.5999L24.667 55.7999L0 31L24.667 6.19995Z" fill="#F09418" fill-opacity="0.35"/>
        <path d="M80.167 0L86.333 6.2L30.833 62L24.667 55.8L80.167 0Z" fill="#F09418"/>
      </g>
      <defs>
        <clipPath id="clip0_216_1320">
          <rect width="111" height="62" fill="white"/>
        </clipPath>
      </defs>
    </symbol>
    <svg id="new" viewBox="0 0 111 61" fill="none">
      <g clip-path="url(#clip0_216_1323)">
        <path d="M30.833 0L37 6.1L30.833 12.2L24.667 6.1L30.833 0ZM43.167 12.2L49.333 18.3L43.167 24.4L37 18.3L43.167 12.2ZM92.5 12.2L98.667 18.3L92.5 24.4L86.333 18.3L92.5 12.2ZM104.833 24.4L111 30.5L104.833 36.6L98.667 30.5L104.833 24.4ZM92.5 36.6L98.667 42.7L92.5 48.8L86.333 42.7L92.5 36.6ZM80.167 48.8L86.333 54.9L80.167 61L74 54.9L80.167 48.8ZM67.833 36.6L74 42.7L67.833 48.8L61.667 42.7L67.833 36.6ZM18.5 12.2L24.667 18.3L18.5 24.4L12.333 18.3L18.5 12.2Z" fill="#4185FF" fill-opacity="0.45"/>
        <path d="M80.167 0L86.333 6.1L30.833 61L0 30.5L6.167 24.4L30.833 48.8L80.167 0Z" fill="#4185FF"/>
      </g>
      <defs>
        <clipPath id="clip0_216_1323">
          <rect width="111" height="61" fill="white"/>
        </clipPath>
      </defs>
    </svg>
    <svg id="available" viewBox="0 0 111 62" fill="none">
      <g clip-path="url(#clip0_216_1326)">
        <path d="M86.333 6.2L80.167 12.4L98.667 31L80.167 49.6L67.833 37.2L61.667 43.4L80.167 62L111 31L86.333 6.2ZM30.833 0L6.16699 24.8L12.333 31L30.833 12.4L43.167 24.8L49.333 18.6L30.833 0Z" fill="#24A446" fill-opacity="0.45"/>
        <path d="M80.167 0L86.333 6.2L30.833 62L0 31L6.167 24.8L30.833 49.6L80.167 0Z" fill="#24A446"/>
      </g>
      <defs>
        <clipPath id="clip0_216_1326">
          <rect width="111" height="62" fill="white"/>
        </clipPath>
      </defs>
    </svg>
  </defs>
</svg>