<svg xmlns="http://www.w3.org/2000/svg">
  <defs>
    <symbol id="no-support" viewBox="0 0 80 98" fill="none">
      <g clip-path="url(#clip0_227_1912)">
        <path fill-rule="evenodd" clip-rule="evenodd" d="M30.3 6.00006C20.6414 5.98582 11.2617 9.23715 3.684 15.2261C2.53672 13.5859 1.30715 12.0049 0 10.4891C8.62974 3.67873 19.3067 -0.0173326 30.3 6.11116e-05C57.363 6.11116e-05 79.3 21.9381 79.3 49.0001C79.3 76.0621 57.363 98.0001 30.3 98.0001C19.3067 98.0175 8.62974 94.3214 0 87.5111C1.30715 85.9952 2.53672 84.4142 3.684 82.7741C11.2617 88.763 20.6414 92.0143 30.3 92.0001C54.048 92.0001 73.3 72.7481 73.3 49.0001C73.3 25.2521 54.049 6.00006 30.3 6.00006Z" fill="#F09418"/>
        <path d="M38.633 48.5L48.3 38.833L43.467 34L33.8 43.667L24.134 34L19.3 38.834L28.966 48.5L19.3 58.166L24.133 62.999L33.799 53.333L43.465 62.999L48.299 58.166L38.633 48.5Z" fill="#F09418"/>
      </g>
      <defs>
        <clipPath id="clip0_227_1912">
          <rect width="79.301" height="98" fill="white"/>
        </clipPath>
      </defs>
    </symbol>
    <symbol id="limited-support" viewBox="0 0 80 98" fill="none"
      xmlns="http://www.w3.org/2000/svg">
      <g clip-path="url(#clip0_227_1916)">
        <path fill-rule="evenodd" clip-rule="evenodd" d="M30.3 6.00006C20.6414 5.98558 11.2616 9.23694 3.684 15.2261C2.5368 13.5858 1.30722 12.0048 0 10.4891C8.62978 3.6788 19.3067 -0.0172547 30.3 6.05632e-05C57.363 6.05632e-05 79.3 21.9381 79.3 49.0001C79.3 76.0621 57.363 98.0001 30.3 98.0001C19.3067 98.0175 8.62974 94.3214 0 87.5111C1.30715 85.9952 2.53672 84.4142 3.684 82.7741C11.2617 88.763 20.6414 92.0143 30.3 92.0001C54.048 92.0001 73.3 72.7481 73.3 49.0001C73.3 25.2521 54.049 6.00006 30.3 6.00006Z" fill="#1A73E8"/>
        <path d="M33.78 58.149L53.3 38.827L48.426 34L28.906 53.322L19.178 43.693L14.3 48.52L28.929 63L33.805 58.173L33.78 58.149Z" fill="#1A73E8"/>
      </g>
      <defs>
        <clipPath id="clip0_227_1916">
          <rect width="79.301" height="98" fill="white"/>
        </clipPath>
      </defs>
    </symbol>
    <svg id="wide-support" viewBox="0 0 80 98" fill="none"
      xmlns="http://www.w3.org/2000/svg">
      <g clip-path="url(#clip0_227_1920)">
        <path fill-rule="evenodd" clip-rule="evenodd" d="M30.3 6.00006C20.6414 5.98558 11.2616 9.23694 3.684 15.2261C2.5368 13.5858 1.30722 12.0048 0 10.4891C8.62978 3.6788 19.3067 -0.0172547 30.3 6.05632e-05C57.363 6.05632e-05 79.3 21.9381 79.3 49.0001C79.3 76.0621 57.363 98.0001 30.3 98.0001C19.3067 98.0175 8.62974 94.3214 0 87.5111C1.30715 85.9952 2.53672 84.4142 3.684 82.7741C11.2617 88.763 20.6414 92.0143 30.3 92.0001C54.048 92.0001 73.3 72.7481 73.3 49.0001C73.3 25.2521 54.049 6.00006 30.3 6.00006Z" fill="#099949"/>
        <path d="M33.78 58.149L53.3 38.827L48.426 34L28.906 53.322L19.178 43.693L14.3 48.52L28.929 63L33.805 58.173L33.78 58.149Z" fill="#099949"/>
      </g>
      <defs>
        <clipPath id="clip0_227_1920">
          <rect width="79.301" height="98" fill="white"/>
        </clipPath>
      </defs>
    </svg>
  </defs>
</svg>