<svg xmlns="http://www.w3.org/2000/svg">
  <defs>
    <symbol id="chrome" viewBox="0 0 100 100" fill="none">
      <g clip-path="url(#clip0_227_1815)">
        <mask id="mask0_227_1815" style="mask-type:luminance" maskUnits="userSpaceOnUse" x="0" y="0" width="100" height="100">
          <path d="M0 0H100V100H0V0Z" fill="white"/>
        </mask>
        <g mask="url(#mask0_227_1815)">
          <path d="M50.001 74.9991C63.809 74.9991 75.002 63.8051 75.002 49.9971C75.002 36.1891 63.809 24.9961 50.001 24.9961C36.193 24.9961 25 36.1891 25 49.9971C25 63.8051 36.193 74.9991 50.001 74.9991Z" fill="white"/>
          <path d="M28.349 62.5041L6.701 25.0081C3.41754 30.6942 1.28635 36.9715 0.429123 43.4813C-0.428101 49.9912 0.00543749 56.6062 1.70498 62.9485C3.40452 69.2908 6.33677 75.2362 10.3343 80.4452C14.3318 85.6542 19.3162 90.0246 25.003 93.3071C32.6045 97.6945 41.2272 100.003 50.004 100L71.652 62.5041V62.4981C70.012 65.343 67.8274 67.8369 65.2232 69.8371C62.6189 71.8373 59.6459 73.3047 56.4742 74.1554C53.3026 75.0061 49.9943 75.2234 46.7386 74.7949C43.4829 74.3664 40.3435 73.3005 37.5 71.6581C33.6988 69.4637 30.5426 66.3068 28.349 62.5051V62.5041Z" fill="#229342"/>
          <path d="M71.651 62.502L50.003 99.998C58.7799 99.9998 67.4026 97.6904 75.0037 93.3022C82.6049 88.914 88.9166 82.6016 93.304 75C97.6917 67.3985 100.001 58.7759 99.9995 49.9989C99.9981 41.222 97.6861 32.6001 93.296 25H49.999L49.994 25.004C54.3834 25.0015 58.6961 26.1549 62.4982 28.3482C66.3003 30.5415 69.4578 33.6975 71.653 37.4985C73.8482 41.2995 75.0038 45.6116 75.0034 50.001C75.0031 54.3904 73.8468 58.7023 71.651 62.503V62.502Z" fill="#FBC116"/>
          <path d="M50.001 69.7962C60.932 69.7962 69.794 60.9342 69.794 50.0032C69.794 39.0712 60.932 30.2102 50.001 30.2102C39.07 30.2102 30.208 39.0712 30.208 50.0032C30.208 60.9342 39.07 69.7962 50.001 69.7962Z" fill="#1A73E8"/>
          <path d="M50.001 25.0021H93.297C88.9097 17.4004 82.5984 11.0877 74.9976 6.69889C67.3968 2.31006 58.7745 -0.000262549 49.9976 0.000244224C41.2207 0.000750997 32.5986 2.31206 24.9983 6.70177C17.398 11.0915 11.0874 17.4049 6.701 25.0071L28.35 62.5031L28.355 62.5071C26.159 58.7066 25.0022 54.395 25.0008 50.0057C24.9994 45.6163 26.1535 41.304 28.347 37.5021C30.5411 33.7005 33.6976 30.5437 37.499 28.3493C41.3004 26.1548 45.6127 25 50.002 25.0011L50.001 25.0021Z" fill="#E33B2E"/>
        </g>
      </g>
      <defs>
        <clipPath id="clip0_227_1815">
          <rect width="100" height="100" fill="white"/>
        </clipPath>
      </defs>
    </symbol>
    <symbol id="edge" viewBox="0 0 100 100" fill="none">
      <g clip-path="url(#clip0_227_1835)">
        <mask id="mask0_227_1835" style="mask-type:luminance" maskUnits="userSpaceOnUse" x="0" y="0" width="100" height="100">
          <path d="M0 0H100V100H0V0Z" fill="white"/>
        </mask>
        <g mask="url(#mask0_227_1835)">
          <path d="M90.273 74.414C88.9323 75.1109 87.5496 75.7241 86.133 76.25C81.6468 77.9201 76.896 78.767 72.109 78.75C53.633 78.75 37.539 66.055 37.539 49.727C37.5631 47.5405 38.1692 45.3999 39.2952 43.5255C40.4211 41.651 42.0261 40.1103 43.945 39.062C27.227 39.766 22.93 57.188 22.93 67.383C22.93 96.289 49.531 99.18 55.273 99.18C58.359 99.18 63.008 98.281 65.82 97.383L66.328 97.227C77.0912 93.5071 86.2668 86.2328 92.344 76.602C92.5188 76.3091 92.5932 75.9672 92.5558 75.6282C92.5184 75.2892 92.3713 74.9716 92.1369 74.7239C91.9024 74.4762 91.5934 74.3119 91.257 74.256C90.9205 74.2 90.575 74.2555 90.273 74.414Z" fill="url(#paint0_linear_227_1835)"/>
          <path opacity="0.35" d="M90.273 74.414C88.9323 75.1109 87.5496 75.7241 86.133 76.25C81.6468 77.9201 76.896 78.767 72.109 78.75C53.633 78.75 37.539 66.055 37.539 49.727C37.5631 47.5405 38.1692 45.3999 39.2952 43.5255C40.4211 41.651 42.0261 40.1103 43.945 39.062C27.227 39.766 22.93 57.188 22.93 67.383C22.93 96.289 49.531 99.18 55.273 99.18C58.359 99.18 63.008 98.281 65.82 97.383L66.328 97.227C77.0912 93.5071 86.2668 86.2328 92.344 76.602C92.5188 76.3091 92.5932 75.9672 92.5558 75.6282C92.5184 75.2892 92.3713 74.9716 92.1369 74.7239C91.9024 74.4762 91.5934 74.3119 91.257 74.256C90.9205 74.2 90.575 74.2555 90.273 74.414Z" fill="url(#paint1_radial_227_1835)"/>
          <path d="M41.289 94.2581C37.8123 92.0983 34.7984 89.2704 32.422 85.938C29.7086 82.2239 27.8408 77.9611 26.9497 73.4485C26.0586 68.9359 26.1659 64.283 27.2639 59.8163C28.3619 55.3495 30.4242 51.1772 33.3058 47.5921C36.1875 44.0069 39.8188 41.0958 43.945 39.063C45.195 38.477 47.266 37.4611 50.039 37.5001C51.9906 37.5151 53.9123 37.9812 55.6538 38.8622C57.3953 39.7431 58.9095 41.0149 60.078 42.5781C61.6497 44.6918 62.5112 47.2492 62.539 49.8831C62.539 49.8051 72.109 18.7891 31.289 18.7891C14.141 18.7891 0.0389979 35.0391 0.0389979 49.3361C-0.0294219 56.8883 1.58535 64.3609 4.766 71.2111C9.97371 82.3012 19.0722 91.093 30.3343 95.9177C41.5963 100.742 54.2379 101.264 65.859 97.3831C61.7875 98.6685 57.4855 99.0548 53.2502 98.5153C49.0149 97.9758 44.9471 96.5232 41.328 94.2581H41.289Z" fill="url(#paint2_linear_227_1835)"/>
          <path opacity="0.41" d="M41.289 94.2581C37.8123 92.0983 34.7984 89.2704 32.422 85.938C29.7086 82.2239 27.8408 77.9611 26.9497 73.4485C26.0586 68.9359 26.1659 64.283 27.2639 59.8163C28.3619 55.3495 30.4242 51.1772 33.3058 47.5921C36.1875 44.0069 39.8188 41.0958 43.945 39.063C45.195 38.477 47.266 37.4611 50.039 37.5001C51.9906 37.5151 53.9123 37.9812 55.6538 38.8622C57.3953 39.7431 58.9095 41.0149 60.078 42.5781C61.6497 44.6918 62.5112 47.2492 62.539 49.8831C62.539 49.8051 72.109 18.7891 31.289 18.7891C14.141 18.7891 0.0389979 35.0391 0.0389979 49.3361C-0.0294219 56.8883 1.58535 64.3609 4.766 71.2111C9.97371 82.3012 19.0722 91.093 30.3343 95.9177C41.5963 100.742 54.2379 101.264 65.859 97.3831C61.7875 98.6685 57.4855 99.0548 53.2502 98.5153C49.0149 97.9758 44.9471 96.5232 41.328 94.2581H41.289Z" fill="url(#paint3_radial_227_1835)"/>
          <path d="M59.531 58.125C59.18 58.516 58.203 59.102 58.203 60.312C58.203 61.328 58.867 62.344 60.078 63.164C65.664 67.07 76.25 66.523 76.289 66.523C80.4533 66.5208 84.5408 65.4012 88.125 63.281C91.7339 61.1706 94.7284 58.1535 96.8114 54.5287C98.8944 50.904 99.9936 46.7976 100 42.617C100.117 33.867 96.875 28.047 95.586 25.469C87.266 9.29699 69.414 8.83467e-08 50 8.83467e-08C36.8602 -0.00078046 24.2482 5.17061 14.8915 14.3958C5.53471 23.621 0.185263 36.1585 0 49.297C0.195 35.039 14.375 23.516 31.25 23.516C32.617 23.516 40.43 23.633 47.656 27.422C52.7332 29.9447 56.9378 33.9312 59.727 38.867C62.109 43.008 62.539 48.281 62.539 50.391C62.539 52.5 61.484 55.586 59.492 58.164L59.531 58.125Z" fill="url(#paint4_radial_227_1835)"/>
          <path d="M59.531 58.125C59.18 58.516 58.203 59.102 58.203 60.312C58.203 61.328 58.867 62.344 60.078 63.164C65.664 67.07 76.25 66.523 76.289 66.523C80.4533 66.5208 84.5408 65.4012 88.125 63.281C91.7339 61.1706 94.7284 58.1535 96.8114 54.5287C98.8944 50.904 99.9936 46.7976 100 42.617C100.117 33.867 96.875 28.047 95.586 25.469C87.266 9.29699 69.414 8.83467e-08 50 8.83467e-08C36.8602 -0.00078046 24.2482 5.17061 14.8915 14.3958C5.53471 23.621 0.185263 36.1585 0 49.297C0.195 35.039 14.375 23.516 31.25 23.516C32.617 23.516 40.43 23.633 47.656 27.422C52.7332 29.9447 56.9378 33.9312 59.727 38.867C62.109 43.008 62.539 48.281 62.539 50.391C62.539 52.5 61.484 55.586 59.492 58.164L59.531 58.125Z" fill="url(#paint5_radial_227_1835)"/>
        </g>
      </g>
      <defs>
        <linearGradient id="paint0_linear_227_1835" x1="22.93" y1="69.141" x2="92.617" y2="69.141" gradientUnits="userSpaceOnUse">
          <stop stop-color="#0C59A4"/>
          <stop offset="1" stop-color="#114A8B"/>
        </linearGradient>
        <radialGradient id="paint1_radial_227_1835" cx="0" cy="0" r="1" gradientUnits="userSpaceOnUse" gradientTransform="translate(61.406 69.666) scale(37.2656 35.4023)">
          <stop offset="0.7" stop-opacity="0"/>
          <stop offset="0.9" stop-opacity="0.5"/>
          <stop offset="1"/>
        </radialGradient>
        <linearGradient id="paint2_linear_227_1835" x1="59.648" y1="38.9061" x2="16.172" y2="86.2891" gradientUnits="userSpaceOnUse">
          <stop stop-color="#1B9DE2"/>
          <stop offset="0.2" stop-color="#1595DF"/>
          <stop offset="0.7" stop-color="#0680D7"/>
          <stop offset="1" stop-color="#0078D4"/>
        </linearGradient>
        <radialGradient id="paint3_radial_227_1835" cx="0" cy="0" r="1" gradientUnits="userSpaceOnUse" gradientTransform="translate(27.561 77.7101) rotate(-81.3844) scale(56.0102 45.2506)">
          <stop offset="0.8" stop-opacity="0"/>
          <stop offset="0.9" stop-opacity="0.5"/>
          <stop offset="1"/>
        </radialGradient>
        <radialGradient id="paint4_radial_227_1835" cx="0" cy="0" r="1" gradientUnits="userSpaceOnUse" gradientTransform="translate(10.113 18.483) rotate(92.2906) scale(79.1257 168.521)">
          <stop stop-color="#35C1F1"/>
          <stop offset="0.1" stop-color="#34C1ED"/>
          <stop offset="0.2" stop-color="#2FC2DF"/>
          <stop offset="0.3" stop-color="#2BC3D2"/>
          <stop offset="0.7" stop-color="#36C752"/>
        </radialGradient>
        <radialGradient id="paint5_radial_227_1835" cx="0" cy="0" r="1" gradientUnits="userSpaceOnUse" gradientTransform="translate(93.773 30.195) rotate(73.7398) scale(38.0078 30.908)">
          <stop stop-color="#66EB6E"/>
          <stop offset="1" stop-color="#66EB6E" stop-opacity="0"/>
        </radialGradient>
        <clipPath id="clip0_227_1835">
          <rect width="100" height="99.957" fill="white"/>
        </clipPath>
      </defs>
    </symbol>
    <symbol id="firefox" viewBox="0 0 100 103" fill="none">
      <g clip-path="url(#clip0_227_1855)">
        <mask id="mask0_227_1855" style="mask-type:luminance" maskUnits="userSpaceOnUse" x="0" y="0" width="100" height="103">
          <path d="M0 0H100V103H0V0Z" fill="white"/>
        </mask>
        <g mask="url(#mask0_227_1855)">
          <path d="M96.375 34.5849C94.2 29.3649 89.788 23.7299 86.333 21.9479C88.7965 26.7048 90.5066 31.8153 91.402 37.0969L91.411 37.1809C85.752 23.1139 76.157 17.4329 68.317 5.07892C67.921 4.45392 67.524 3.82791 67.138 3.16791C66.9414 2.83131 66.7576 2.48739 66.587 2.13691C66.2615 1.50943 66.0107 0.845893 65.84 0.159918C65.84 0.128213 65.8284 0.0975855 65.8074 0.0738278C65.7864 0.0500702 65.7575 0.0348223 65.726 0.0309201C65.6953 0.0219199 65.6627 0.0219199 65.632 0.0309201C65.626 0.0309201 65.615 0.0419277 65.608 0.0449277C65.6 0.0479277 65.583 0.0589096 65.571 0.0639096L65.591 0.0309201C53.017 7.37392 48.748 20.9639 48.361 27.7649C43.3397 28.1078 38.5377 29.953 34.579 33.0609C34.1662 32.7125 33.735 32.3867 33.287 32.0849C32.1467 28.1035 32.0983 23.8885 33.147 19.8819C28.5311 22.111 24.4279 25.2737 21.097 29.1699H21.074C19.09 26.6609 19.23 18.3909 19.343 16.6639C18.7563 16.899 18.1961 17.1957 17.672 17.5489C15.9205 18.7947 14.2831 20.1936 12.779 21.7289C11.0654 23.4614 9.50025 25.3346 8.1 27.3289V27.3359V27.3269C4.88299 31.8745 2.59994 37.015 1.383 42.4509L1.316 42.7809C1.222 43.2199 0.881997 45.4199 0.823997 45.8979C0.823997 45.9349 0.815996 45.9699 0.811996 46.0069C0.374222 48.2785 0.102837 50.5789 0 52.8899V53.1479C0.0246454 65.6475 4.74323 77.6818 13.221 86.8669C21.713 96.0653 33.3398 101.753 45.814 102.81C58.2912 103.871 70.7143 100.227 80.641 92.5939C90.5533 84.9728 97.2442 73.9089 99.39 61.5909C99.474 60.9459 99.542 60.3089 99.617 59.6579C100.648 51.1576 99.5316 42.5345 96.37 34.5769L96.375 34.5849ZM38.679 73.6689C38.912 73.7809 39.132 73.9019 39.372 74.0089L39.407 74.0309C39.1625 73.9141 38.9198 73.7934 38.679 73.6689ZM91.413 37.1949V37.1469L91.422 37.1999L91.413 37.1949Z" fill="url(#paint0_linear_227_1855)"/>
          <path d="M96.375 34.585C94.2 29.365 89.788 23.73 86.333 21.948C88.7961 26.7051 90.5061 31.8155 91.402 37.097V37.145L91.411 37.198C95.27 48.2093 94.7119 60.2875 89.854 70.896C84.116 83.174 70.234 95.758 48.496 95.14C25.015 94.477 4.32301 77.093 0.461006 54.33C-0.242994 50.74 0.46101 48.92 0.81501 46.002C0.332335 48.2682 0.0628258 50.5746 0.0100098 52.891V53.149C0.0344391 65.6487 4.75346 77.6833 13.232 86.868C21.7234 96.0671 33.3506 101.755 45.825 102.811C58.3019 103.872 70.7246 100.228 80.651 92.595C90.5639 84.9743 97.2549 73.9102 99.4 61.592C99.484 60.948 99.552 60.31 99.627 59.66C100.658 51.1597 99.5417 42.5365 96.38 34.579L96.375 34.585Z" fill="url(#paint1_radial_227_1855)"/>
          <path d="M96.375 34.585C94.2 29.365 89.788 23.73 86.333 21.948C88.7961 26.7051 90.5061 31.8155 91.402 37.097V37.145L91.411 37.198C95.27 48.2093 94.7119 60.2875 89.854 70.896C84.116 83.174 70.234 95.758 48.496 95.14C25.015 94.477 4.32301 77.093 0.461006 54.33C-0.242994 50.74 0.46101 48.92 0.81501 46.002C0.332335 48.2682 0.0628258 50.5746 0.0100098 52.891V53.149C0.0344391 65.6487 4.75346 77.6833 13.232 86.868C21.7234 96.0671 33.3506 101.755 45.825 102.811C58.3019 103.872 70.7246 100.228 80.651 92.595C90.5639 84.9743 97.2549 73.9102 99.4 61.592C99.484 60.948 99.552 60.31 99.627 59.66C100.658 51.1597 99.5417 42.5365 96.38 34.579L96.375 34.585Z" fill="url(#paint2_radial_227_1855)"/>
          <path d="M72.041 40.4459C72.149 40.5219 72.25 40.598 72.352 40.674C71.0942 38.4493 69.5287 36.4132 67.702 34.6259C52.138 19.1039 63.625 0.978934 65.561 0.0509338L65.58 0.0229492C53.006 7.36595 48.738 20.9559 48.35 27.7579C48.934 27.7179 49.513 27.6689 50.109 27.6689C54.5691 27.6769 58.9479 28.8632 62.802 31.1079C66.6519 33.3496 69.8396 36.5708 72.041 40.4439V40.4459Z" fill="url(#paint3_radial_227_1855)"/>
          <path d="M50.135 43.551C50.053 44.793 45.653 49.076 44.115 49.076C29.881 49.076 27.569 57.664 27.569 57.664C28.2 64.896 33.252 70.855 39.361 73.998C39.64 74.143 39.922 74.273 40.205 74.4C40.695 74.617 41.185 74.817 41.675 75.001C43.7719 75.7404 45.9674 76.1628 48.189 76.254C73.143 77.421 77.973 46.497 59.967 37.518C64.2133 36.9669 68.5133 38.0082 72.037 40.441C69.8356 36.5678 66.6479 33.3467 62.798 31.105C58.9438 28.8606 54.5651 27.6743 50.105 27.666C49.511 27.666 48.93 27.715 48.346 27.755C43.325 28.0978 38.5233 29.9431 34.565 33.051C35.328 33.695 36.19 34.555 38.004 36.34C41.401 39.677 50.113 43.135 50.133 43.541L50.135 43.551Z" fill="url(#paint4_radial_227_1855)"/>
          <path d="M50.135 43.551C50.053 44.793 45.653 49.076 44.115 49.076C29.881 49.076 27.569 57.664 27.569 57.664C28.2 64.896 33.252 70.855 39.361 73.998C39.64 74.143 39.922 74.273 40.205 74.4C40.695 74.617 41.185 74.817 41.675 75.001C43.7719 75.7404 45.9674 76.1628 48.189 76.254C73.143 77.421 77.973 46.497 59.967 37.518C64.2133 36.9669 68.5133 38.0082 72.037 40.441C69.8356 36.5678 66.6479 33.3467 62.798 31.105C58.9438 28.8606 54.5651 27.6743 50.105 27.666C49.511 27.666 48.93 27.715 48.346 27.755C43.325 28.0978 38.5233 29.9431 34.565 33.051C35.328 33.695 36.19 34.555 38.004 36.34C41.401 39.677 50.113 43.135 50.133 43.541L50.135 43.551Z" fill="url(#paint5_radial_227_1855)"/>
          <path d="M32.233 31.4031C32.639 31.6611 32.974 31.885 33.267 32.087C32.1263 28.1056 32.0777 23.8907 33.126 19.884C28.5103 22.1135 24.4072 25.2761 21.076 29.1721C21.321 29.1661 28.582 29.0361 32.233 31.4031Z" fill="url(#paint6_radial_227_1855)"/>
          <path d="M0.452002 54.3331C4.315 77.0951 25.006 94.4862 48.487 95.1422C70.225 95.7562 84.11 83.1701 89.845 70.8991C94.703 60.2903 95.261 48.2117 91.402 37.2001V37.1521C91.402 37.1151 91.394 37.0931 91.402 37.1051L91.411 37.1881C93.187 48.7521 87.29 59.9511 78.069 67.5381L78.041 67.6021C60.074 82.1981 42.883 76.4062 39.408 74.0432C39.1635 73.9263 38.9208 73.8056 38.68 73.6812C28.206 68.6882 23.878 59.1761 24.808 51.0091C22.3223 51.0464 19.8789 50.3632 17.773 49.0421C15.6697 47.7232 13.9943 45.8224 12.95 43.5701C15.7013 41.8906 18.8359 40.9414 22.0568 40.8124C25.2777 40.6834 28.4782 41.3789 31.355 42.8331C37.2843 45.5169 44.0267 45.7814 50.148 43.5701C50.129 43.1641 41.417 39.7061 38.02 36.3691C36.205 34.5851 35.344 33.7261 34.58 33.0801C34.1676 32.7317 33.7366 32.4059 33.289 32.1041C32.992 31.9021 32.657 31.6831 32.255 31.4201C28.604 29.0521 21.343 29.1821 21.102 29.1891H21.079C19.095 26.6811 19.235 18.4111 19.348 16.6831C18.7613 16.9182 18.2011 17.2148 17.677 17.5681C15.9262 18.8148 14.2888 20.2135 12.784 21.7481C11.0642 23.4758 9.49238 25.3447 8.085 27.3351C4.86814 31.882 2.5854 37.0218 1.369 42.4571C1.344 42.5591 -0.434001 50.3141 0.442999 54.3351L0.452002 54.3331Z" fill="url(#paint7_radial_227_1855)"/>
          <path d="M67.701 34.624C69.5282 36.4131 71.0936 38.4512 72.351 40.678C72.626 40.886 72.883 41.092 73.101 41.291C84.451 51.726 78.504 66.475 78.061 67.519C87.281 59.943 93.173 48.737 91.404 37.169C85.741 23.089 76.137 17.408 68.309 5.05498C67.913 4.42998 67.516 3.804 67.13 3.143C66.9332 2.80683 66.7494 2.46325 66.579 2.113C66.2539 1.48498 66.0032 0.821158 65.832 0.135001C65.832 0.103295 65.8204 0.0726681 65.7994 0.0489105C65.7784 0.0251528 65.7495 0.00990494 65.718 0.00600276C65.6872 -0.00200092 65.6548 -0.00200092 65.624 0.00600276C65.618 0.00600276 65.607 0.0179869 65.6 0.0209869C65.592 0.0229869 65.575 0.0349993 65.564 0.0399993C63.627 0.955999 52.144 19.092 67.708 34.602L67.701 34.624Z" fill="url(#paint8_radial_227_1855)"/>
          <path d="M73.1 41.2971C72.882 41.0971 72.625 40.8911 72.35 40.6831C72.248 40.6071 72.147 40.5311 72.038 40.4551C68.5143 38.0223 64.2143 36.9809 59.968 37.5321C77.973 46.5111 73.143 77.4271 48.19 76.2681C45.9684 76.1773 43.7728 75.755 41.676 75.0151C41.186 74.8321 40.696 74.6321 40.207 74.4141C39.9217 74.2878 39.6399 74.1538 39.362 74.0121L39.397 74.0341C42.876 76.4031 60.063 82.1911 78.029 67.5931L78.057 67.5291C78.505 66.4861 84.452 51.7361 73.097 41.3021L73.1 41.2971Z" fill="url(#paint9_radial_227_1855)"/>
          <path d="M27.571 57.6559C27.571 57.6559 29.881 49.0679 44.116 49.0679C45.655 49.0679 50.058 44.7849 50.136 43.5429C44.0148 45.7542 37.2723 45.4897 31.343 42.8059C28.4663 41.3515 25.2657 40.6557 22.0448 40.7847C18.8239 40.9137 15.6892 41.8631 12.938 43.5429C13.9824 45.7955 15.6582 47.6964 17.762 49.0149C19.8676 50.336 22.3106 51.0191 24.796 50.9819C23.869 59.1459 28.196 68.6559 38.668 73.6539C38.902 73.7659 39.122 73.8879 39.362 73.9939C33.249 70.8449 28.201 64.8879 27.571 57.6599V57.6559Z" fill="url(#paint10_radial_227_1855)"/>
          <path d="M96.372 34.561C94.197 29.341 89.785 23.705 86.33 21.923C88.7934 26.6803 90.5037 31.7912 91.4 37.073L91.409 37.156C85.749 23.089 76.155 17.408 68.315 5.05498C67.91 4.42512 67.5169 3.78769 67.136 3.14299C66.9393 2.80661 66.7552 2.46304 66.584 2.113C66.2589 1.48498 66.0082 0.821156 65.837 0.134998C65.837 0.103445 65.8256 0.0729487 65.8048 0.0492136C65.784 0.0254784 65.7553 0.0101269 65.724 0.00600068C65.6928 -0.00200023 65.6602 -0.00200023 65.629 0.00600068C65.623 0.00600068 65.613 0.0179848 65.605 0.0209848C65.597 0.0229848 65.58 0.0349973 65.569 0.0399973L65.588 0.00600068C53.014 7.349 48.746 20.939 48.358 27.741C48.942 27.701 49.52 27.652 50.117 27.652C54.577 27.6605 58.9557 28.8468 62.81 31.091C66.6599 33.3327 69.8476 36.5538 72.049 40.427C68.5255 37.9938 64.2254 36.9525 59.979 37.504C77.984 46.483 73.153 77.399 48.2 76.24C45.9786 76.1488 43.7834 75.7262 41.687 74.986C41.1912 74.8006 40.7009 74.6005 40.217 74.386C39.934 74.257 39.651 74.128 39.372 73.984L39.407 74.006C39.1625 73.8891 38.9198 73.7684 38.679 73.644C38.912 73.756 39.132 73.877 39.372 73.984C33.259 70.833 28.211 64.877 27.581 57.65C27.581 57.65 29.892 49.062 44.127 49.062C45.665 49.062 50.068 44.778 50.147 43.537C50.128 43.131 41.416 39.672 38.019 36.336C36.204 34.552 35.342 33.692 34.579 33.047C34.1667 32.698 33.7354 32.3721 33.287 32.071C32.1467 28.0895 32.0983 23.8746 33.147 19.868C28.5311 22.0967 24.428 25.2591 21.097 29.155H21.074C19.09 26.647 19.23 18.377 19.343 16.65C18.7563 16.8851 18.1961 17.1817 17.672 17.535C15.9205 18.7808 14.2831 20.1797 12.779 21.715C11.0654 23.4475 9.50025 25.3207 8.1 27.315C4.88283 31.8618 2.59976 37.0017 1.383 42.437L1.316 42.766C1.222 43.206 0.799998 45.437 0.738998 45.916C0.352383 48.219 0.105599 50.5432 0 52.876V53.134C0.0247005 65.6332 4.7433 77.6672 13.221 86.852C21.7127 96.0507 33.3397 101.738 45.814 102.795C58.2913 103.857 70.7145 100.213 80.641 92.579C90.5536 84.958 97.2445 73.894 99.39 61.576C99.474 60.932 99.542 60.295 99.617 59.644C100.648 51.1437 99.5316 42.5205 96.37 34.563L96.372 34.561Z" fill="url(#paint11_linear_227_1855)"/>
        </g>
      </g>
      <defs>
        <linearGradient id="paint0_linear_227_1855" x1="89.749" y1="15.9779" x2="6.856" y2="96.1689" gradientUnits="userSpaceOnUse">
          <stop offset="0.048" stop-color="#FFF44F"/>
          <stop offset="0.111" stop-color="#FFE847"/>
          <stop offset="0.225" stop-color="#FFC830"/>
          <stop offset="0.368" stop-color="#FF980E"/>
          <stop offset="0.401" stop-color="#FF8B16"/>
          <stop offset="0.462" stop-color="#FF672A"/>
          <stop offset="0.534" stop-color="#FF3647"/>
          <stop offset="0.705" stop-color="#E31587"/>
        </linearGradient>
        <radialGradient id="paint1_radial_227_1855" cx="0" cy="0" r="1" gradientUnits="userSpaceOnUse" gradientTransform="translate(86.533 11.617) scale(104.362 104.085)">
          <stop offset="0.129" stop-color="#FFBD4F"/>
          <stop offset="0.186" stop-color="#FFAC31"/>
          <stop offset="0.247" stop-color="#FF9D17"/>
          <stop offset="0.283" stop-color="#FF980E"/>
          <stop offset="0.403" stop-color="#FF563B"/>
          <stop offset="0.467" stop-color="#FF3750"/>
          <stop offset="0.71" stop-color="#F5156C"/>
          <stop offset="0.782" stop-color="#EB0878"/>
          <stop offset="0.86" stop-color="#E50080"/>
        </radialGradient>
        <radialGradient id="paint2_radial_227_1855" cx="0" cy="0" r="1" gradientUnits="userSpaceOnUse" gradientTransform="translate(47.784 54.127) scale(104.362 104.085)">
          <stop offset="0.3" stop-color="#960E18"/>
          <stop offset="0.351" stop-color="#B11927" stop-opacity="0.74"/>
          <stop offset="0.435" stop-color="#DB293D" stop-opacity="0.343"/>
          <stop offset="0.497" stop-color="#F5334B" stop-opacity="0.094"/>
          <stop offset="0.53" stop-color="#FF3750" stop-opacity="0"/>
        </radialGradient>
        <radialGradient id="paint3_radial_227_1855" cx="0" cy="0" r="1" gradientUnits="userSpaceOnUse" gradientTransform="translate(60.701 -11.5711) scale(75.5982 75.3974)">
          <stop offset="0.132" stop-color="#FFF44F"/>
          <stop offset="0.252" stop-color="#FFDC3E"/>
          <stop offset="0.506" stop-color="#FF9D12"/>
          <stop offset="0.526" stop-color="#FF980E"/>
        </radialGradient>
        <radialGradient id="paint4_radial_227_1855" cx="0" cy="0" r="1" gradientUnits="userSpaceOnUse" gradientTransform="translate(36.16 81.179) scale(49.6884 49.5564)">
          <stop offset="0.353" stop-color="#3A8EE6"/>
          <stop offset="0.472" stop-color="#5C79F0"/>
          <stop offset="0.669" stop-color="#9059FF"/>
          <stop offset="1" stop-color="#C139E6"/>
        </radialGradient>
        <radialGradient id="paint5_radial_227_1855" cx="0" cy="0" r="1" gradientUnits="userSpaceOnUse" gradientTransform="translate(52.832 45.192) rotate(-13.5568) scale(26.3452 30.7707)">
          <stop offset="0.206" stop-color="#9059FF" stop-opacity="0"/>
          <stop offset="0.278" stop-color="#8C4FF3" stop-opacity="0.064"/>
          <stop offset="0.747" stop-color="#7716A8" stop-opacity="0.45"/>
          <stop offset="0.975" stop-color="#6E008B" stop-opacity="0.6"/>
        </radialGradient>
        <radialGradient id="paint6_radial_227_1855" cx="0" cy="0" r="1" gradientUnits="userSpaceOnUse" gradientTransform="translate(46.493 7.75203) scale(35.7519 35.6569)">
          <stop stop-color="#FFE226"/>
          <stop offset="0.121" stop-color="#FFDB27"/>
          <stop offset="0.295" stop-color="#FFC82A"/>
          <stop offset="0.502" stop-color="#FFA930"/>
          <stop offset="0.732" stop-color="#FF7E37"/>
          <stop offset="0.792" stop-color="#FF7139"/>
        </radialGradient>
        <radialGradient id="paint7_radial_227_1855" cx="0" cy="0" r="1" gradientUnits="userSpaceOnUse" gradientTransform="translate(74.908 -15.4349) scale(152.54 152.134)">
          <stop offset="0.113" stop-color="#FFF44F"/>
          <stop offset="0.456" stop-color="#FF980E"/>
          <stop offset="0.622" stop-color="#FF5634"/>
          <stop offset="0.716" stop-color="#FF3647"/>
          <stop offset="0.904" stop-color="#E31587"/>
        </radialGradient>
        <radialGradient id="paint8_radial_227_1855" cx="0" cy="0" r="1" gradientUnits="userSpaceOnUse" gradientTransform="translate(62.23 -7) rotate(83.9601) scale(111.49 73.3602)">
          <stop stop-color="#FFF44F"/>
          <stop offset="0.06" stop-color="#FFE847"/>
          <stop offset="0.168" stop-color="#FFC830"/>
          <stop offset="0.304" stop-color="#FF980E"/>
          <stop offset="0.356" stop-color="#FF8B16"/>
          <stop offset="0.455" stop-color="#FF672A"/>
          <stop offset="0.57" stop-color="#FF3647"/>
          <stop offset="0.737" stop-color="#E31587"/>
        </radialGradient>
        <radialGradient id="paint9_radial_227_1855" cx="0" cy="0" r="1" gradientUnits="userSpaceOnUse" gradientTransform="translate(46.493 20.6341) scale(95.2178 94.965)">
          <stop offset="0.137" stop-color="#FFF44F"/>
          <stop offset="0.48" stop-color="#FF980E"/>
          <stop offset="0.592" stop-color="#FF5634"/>
          <stop offset="0.655" stop-color="#FF3647"/>
          <stop offset="0.904" stop-color="#E31587"/>
        </radialGradient>
        <radialGradient id="paint10_radial_227_1855" cx="0" cy="0" r="1" gradientUnits="userSpaceOnUse" gradientTransform="translate(71.033 25.7869) scale(104.22 103.944)">
          <stop offset="0.094" stop-color="#FFF44F"/>
          <stop offset="0.231" stop-color="#FFE141"/>
          <stop offset="0.509" stop-color="#FFAF1E"/>
          <stop offset="0.626" stop-color="#FF980E"/>
        </radialGradient>
        <linearGradient id="paint11_linear_227_1855" x1="88.739" y1="15.529" x2="18.224" y2="86.244" gradientUnits="userSpaceOnUse">
          <stop offset="0.167" stop-color="#FFF44F" stop-opacity="0.8"/>
          <stop offset="0.266" stop-color="#FFF44F" stop-opacity="0.634"/>
          <stop offset="0.489" stop-color="#FFF44F" stop-opacity="0.217"/>
          <stop offset="0.6" stop-color="#FFF44F" stop-opacity="0"/>
        </linearGradient>
        <clipPath id="clip0_227_1855">
          <rect width="100" height="102.991" fill="white"/>
        </clipPath>
      </defs>
    </symbol>
    <symbol id="safari" viewBox="0 0 96 96" fill="none">
      <g clip-path="url(#clip0_227_1882)">
        <mask id="mask0_227_1882" style="mask-type:luminance" maskUnits="userSpaceOnUse" x="-3" y="0" width="101" height="100">
          <path d="M-2.48102 0H97.519V100H-2.48102V0Z" fill="white"/>
        </mask>
        <g mask="url(#mask0_227_1882)">
          <path opacity="0.53" d="M93.128 51.5889C93.1259 57.3987 91.9451 63.1477 89.657 68.4879C87.3457 73.8726 83.9846 78.7428 79.77 82.814C75.5052 86.9337 70.4799 90.1847 64.974 92.3859C59.4237 94.6085 53.4997 95.7497 47.521 95.7479C41.5422 95.7497 35.6182 94.6085 30.068 92.3859C24.5622 90.1844 19.5369 86.9335 15.272 82.814C11.0577 78.7428 7.6969 73.8726 5.38597 68.4879C3.09751 63.1477 1.91634 57.3988 1.91397 51.5889C1.91397 39.8769 6.71897 28.646 15.272 20.364C23.825 12.083 35.426 7.42993 47.521 7.42993C53.51 7.42993 59.441 8.57293 64.974 10.7919C70.4799 12.9932 75.5052 16.2442 79.77 20.364C83.9846 24.4351 87.3457 29.3052 89.657 34.6899C91.9451 40.0302 93.1259 45.7791 93.128 51.5889Z" fill="black"/>
          <path d="M94.862 47.6899C94.8624 53.9393 93.6384 60.1282 91.259 65.9069C88.8825 71.6774 85.3955 76.9248 80.996 81.351C76.6052 85.7677 71.3858 89.2744 65.637 91.6699C59.8959 94.0616 53.7383 95.2933 47.519 95.2939C41.2953 95.2909 35.1337 94.0575 29.3885 91.6646C23.6432 89.2717 18.4278 85.7667 14.042 81.351C5.15533 72.4025 0.170463 60.3013 0.175969 47.6899C0.170136 35.0785 5.15505 22.9772 14.042 14.0289C18.4276 9.61304 23.6431 6.10784 29.3884 3.71497C35.1336 1.32209 41.2953 0.0887666 47.519 0.0859375C53.7382 0.0862805 59.8959 1.31759 65.637 3.70892C71.3858 6.10481 76.6052 9.61184 80.996 14.0289C85.3957 18.4549 88.8828 23.7023 91.259 29.473C93.6386 35.2516 94.8626 41.4405 94.862 47.6899Z" fill="url(#paint0_linear_227_1882)" stroke="#CDCDCD" stroke-width="0.352" stroke-linecap="round" stroke-linejoin="round"/>
          <path d="M91.153 47.6899C91.1583 59.3131 86.5637 70.4662 78.373 78.713C74.3309 82.7827 69.524 86.0131 64.2289 88.2184C58.9338 90.4237 53.2549 91.5603 47.519 91.5629C41.783 91.5603 36.1041 90.4237 30.809 88.2184C25.5139 86.0131 20.7071 82.7827 16.665 78.713C8.47418 70.4662 3.87966 59.3131 3.88495 47.6899C3.87972 36.0665 8.47421 24.9132 16.665 16.666C20.7071 12.5962 25.5139 9.36575 30.809 7.16046C36.1041 4.95517 41.783 3.81852 47.519 3.81592C53.2549 3.81852 58.9338 4.95517 64.2289 7.16046C69.524 9.36575 74.3309 12.5962 78.373 16.666C86.5637 24.9132 91.1582 36.0665 91.153 47.6899Z" fill="url(#paint1_radial_227_1882)"/>
          <path d="M47.519 6.104C47.4351 6.10413 47.3522 6.12082 47.2748 6.15308C47.1974 6.18533 47.1272 6.23254 47.0681 6.29199C47.009 6.35145 46.9623 6.42195 46.9305 6.49951C46.8987 6.57708 46.8826 6.6602 46.883 6.74402V14.122C46.8781 14.2085 46.891 14.2951 46.9207 14.3765C46.9505 14.4579 46.9966 14.5324 47.0561 14.5953C47.1156 14.6583 47.1874 14.7085 47.267 14.7427C47.3466 14.777 47.4323 14.7947 47.519 14.7947C47.6056 14.7947 47.6914 14.777 47.771 14.7427C47.8505 14.7085 47.9223 14.6583 47.9818 14.5953C48.0414 14.5324 48.0874 14.4579 48.1172 14.3765C48.147 14.2951 48.1598 14.2085 48.155 14.122V6.74402C48.1554 6.6602 48.1392 6.57708 48.1074 6.49951C48.0757 6.42195 48.0289 6.35145 47.9698 6.29199C47.9107 6.23254 47.8405 6.18533 47.7631 6.15308C47.6858 6.12082 47.6028 6.10413 47.519 6.104ZM43.357 6.36902C43.2627 6.35987 43.1676 6.37179 43.0785 6.40399C42.9894 6.43619 42.9086 6.4878 42.8419 6.55511C42.7753 6.62243 42.7245 6.70375 42.6932 6.79315C42.6619 6.88255 42.6509 6.97784 42.661 7.07202L42.982 10.158C42.9906 10.2411 43.0156 10.3216 43.0554 10.395C43.0952 10.4684 43.149 10.5333 43.2139 10.5859C43.2788 10.6385 43.3533 10.6778 43.4334 10.7016C43.5135 10.7254 43.5974 10.7332 43.6805 10.7245C43.7635 10.7158 43.8441 10.6909 43.9175 10.6511C43.9909 10.6113 44.0558 10.5574 44.1084 10.4926C44.161 10.4277 44.2003 10.3531 44.2241 10.2731C44.2479 10.193 44.2556 10.1091 44.247 10.026L43.927 6.93903C43.9124 6.79279 43.8477 6.6561 43.7438 6.55219C43.6399 6.44827 43.5032 6.38355 43.357 6.36902ZM51.71 6.37201C51.5637 6.38636 51.4269 6.45098 51.3229 6.55493C51.219 6.65888 51.1543 6.79571 51.14 6.94202L50.817 10.028C50.8031 10.1135 50.8069 10.2009 50.828 10.2849C50.849 10.3689 50.887 10.4477 50.9396 10.5165C50.9922 10.5853 51.0582 10.6427 51.1337 10.6851C51.2092 10.7275 51.2926 10.7541 51.3787 10.7632C51.4648 10.7724 51.5519 10.7638 51.6346 10.7382C51.7173 10.7125 51.7939 10.6702 51.8597 10.614C51.9255 10.5577 51.9792 10.4886 52.0174 10.4109C52.0556 10.3332 52.0776 10.2485 52.082 10.162L52.405 7.07501C52.415 6.98092 52.4041 6.88577 52.3728 6.79645C52.3416 6.70713 52.2908 6.62589 52.2243 6.55859C52.1578 6.4913 52.0771 6.43962 51.9881 6.40735C51.8992 6.37508 51.8042 6.36302 51.71 6.37201ZM39.082 6.992C38.9872 6.99271 38.8938 7.01453 38.8085 7.05585C38.7233 7.09717 38.6483 7.15697 38.589 7.2309C38.5297 7.30482 38.4876 7.391 38.4658 7.48322C38.444 7.57543 38.4431 7.67133 38.463 7.76398L39.983 14.982C40.0181 15.147 40.1173 15.2912 40.2588 15.383C40.4003 15.4748 40.5725 15.5066 40.7375 15.4715C40.9024 15.4364 41.0467 15.3371 41.1385 15.1956C41.2303 15.0541 41.2621 14.8819 41.227 14.717L39.708 7.49902C39.6782 7.35524 39.5996 7.22614 39.4855 7.13373C39.3714 7.04131 39.2288 6.99126 39.082 6.992ZM55.985 6.99799C55.8381 6.99705 55.6954 7.04708 55.5813 7.13953C55.4671 7.23197 55.3886 7.36114 55.359 7.505L53.834 14.722C53.7983 14.8876 53.8299 15.0606 53.9218 15.2029C54.0137 15.3453 54.1584 15.4453 54.324 15.481C54.4059 15.4986 54.4904 15.4997 54.5728 15.4844C54.6552 15.469 54.7336 15.4376 54.8038 15.3917C54.8739 15.3459 54.9342 15.2866 54.9813 15.2173C55.0283 15.148 55.0612 15.07 55.078 14.988L56.603 7.771C56.623 7.67836 56.6222 7.58244 56.6005 7.49017C56.5789 7.3979 56.5369 7.31158 56.4777 7.23755C56.4186 7.16352 56.3436 7.10364 56.2584 7.06219C56.1731 7.02075 56.0797 6.99881 55.985 6.99799ZM35.002 8.14899C34.897 8.14058 34.7917 8.1582 34.6952 8.20026C34.5987 8.24231 34.5141 8.3075 34.4488 8.39008C34.3835 8.47265 34.3396 8.57005 34.321 8.67365C34.3024 8.77724 34.3096 8.88386 34.342 8.98401L35.296 11.936C35.405 12.273 35.763 12.456 36.098 12.347C36.259 12.2939 36.3924 12.1792 36.4689 12.0279C36.5454 11.8766 36.5587 11.7011 36.506 11.54L35.552 8.58899C35.5141 8.46949 35.4416 8.3639 35.3437 8.28558C35.2458 8.20727 35.1269 8.15973 35.002 8.14899ZM60.042 8.15002C59.917 8.16109 59.7982 8.20873 59.7002 8.28699C59.6022 8.36524 59.5294 8.47065 59.491 8.59003L58.537 11.542C58.4843 11.703 58.4976 11.8783 58.5741 12.0295C58.6506 12.1806 58.784 12.2952 58.945 12.348C59.0246 12.374 59.1086 12.3839 59.1921 12.3773C59.2756 12.3707 59.357 12.3477 59.4315 12.3094C59.5061 12.2712 59.5723 12.2186 59.6264 12.1547C59.6806 12.0908 59.7215 12.0168 59.747 11.937L60.701 8.98602C60.7335 8.8859 60.7409 8.77925 60.7224 8.6756C60.7039 8.57195 60.6601 8.47447 60.595 8.39178C60.5298 8.3091 60.4452 8.24378 60.3488 8.2016C60.2523 8.15942 60.1469 8.14173 60.042 8.15002ZM30.967 9.633C30.8617 9.63558 30.7586 9.66412 30.667 9.71606C30.5754 9.76801 30.498 9.84176 30.4417 9.93079C30.3854 10.0198 30.352 10.1214 30.3444 10.2264C30.3367 10.3315 30.3551 10.4368 30.398 10.533L33.378 17.275C33.4115 17.3518 33.4599 17.4211 33.5203 17.4791C33.5808 17.537 33.6521 17.5824 33.7302 17.6126C33.8083 17.6428 33.8916 17.6573 33.9754 17.6551C34.0591 17.6529 34.1415 17.6342 34.218 17.6C34.3725 17.5307 34.4933 17.403 34.5539 17.2448C34.6144 17.0865 34.6098 16.9108 34.541 16.756L31.56 10.014C31.5098 9.899 31.4267 9.80145 31.3212 9.73364C31.2156 9.66584 31.0924 9.63083 30.967 9.633ZM64.122 9.65601C63.9966 9.65362 63.8734 9.68847 63.7679 9.7561C63.6623 9.82374 63.5792 9.92114 63.529 10.036L60.539 16.774C60.4701 16.9287 60.4653 17.1043 60.5257 17.2625C60.586 17.4207 60.7066 17.5485 60.861 17.618C61.183 17.763 61.557 17.618 61.701 17.295L64.69 10.557C64.7332 10.4608 64.752 10.3554 64.7447 10.2502C64.7373 10.145 64.704 10.0433 64.6478 9.95404C64.5915 9.86483 64.5141 9.79096 64.4223 9.73895C64.3306 9.68695 64.2274 9.65844 64.122 9.65601ZM27.222 11.626C27.1066 11.619 26.9915 11.6434 26.8889 11.6965C26.7863 11.7496 26.6999 11.8295 26.6389 11.9277C26.5779 12.0258 26.5446 12.1386 26.5425 12.2542C26.5404 12.3697 26.5696 12.4837 26.627 12.584L28.17 15.272C28.2113 15.3447 28.2667 15.4086 28.3329 15.4598C28.3991 15.511 28.4748 15.5486 28.5556 15.5703C28.6364 15.5921 28.7208 15.5976 28.8037 15.5865C28.8867 15.5755 28.9667 15.5481 29.039 15.506C29.1117 15.4639 29.1755 15.408 29.2265 15.3413C29.2776 15.2746 29.3151 15.1985 29.3367 15.1173C29.3584 15.0361 29.3638 14.9515 29.3527 14.8682C29.3416 14.7849 29.3141 14.7047 29.272 14.632L27.729 11.945C27.6774 11.8541 27.6041 11.7774 27.5156 11.7217C27.4271 11.6661 27.3262 11.6332 27.222 11.626ZM67.816 11.626C67.7116 11.633 67.6107 11.6658 67.5222 11.7215C67.4337 11.7772 67.3604 11.854 67.309 11.945L65.766 14.632C65.6811 14.7788 65.6579 14.9533 65.7016 15.1172C65.7453 15.2811 65.8522 15.4209 65.999 15.506C66.0713 15.5481 66.1512 15.5755 66.2342 15.5865C66.3172 15.5976 66.4015 15.5921 66.4823 15.5703C66.5631 15.5486 66.6388 15.511 66.705 15.4598C66.7712 15.4086 66.8266 15.3447 66.868 15.272L68.411 12.584C68.4683 12.4837 68.4975 12.3697 68.4954 12.2542C68.4933 12.1386 68.46 12.0258 68.399 11.9277C68.338 11.8295 68.2517 11.7496 68.149 11.6965C68.0464 11.6434 67.9313 11.619 67.816 11.626ZM23.586 13.906C23.4702 13.9108 23.3579 13.9468 23.2611 14.0103C23.1642 14.0738 23.0863 14.1624 23.0357 14.2666C22.9852 14.3708 22.9638 14.4868 22.9739 14.6022C22.9839 14.7176 23.0251 14.8281 23.093 14.922L27.401 20.894C27.608 21.181 28.005 21.244 28.29 21.036C28.4269 20.9362 28.5187 20.7861 28.5451 20.6187C28.5716 20.4512 28.5305 20.2802 28.431 20.143L24.122 14.171C24.0616 14.0859 23.981 14.0171 23.8874 13.9709C23.7938 13.9246 23.6903 13.9023 23.586 13.906ZM71.498 13.939C71.3937 13.935 71.29 13.9568 71.1963 14.0027C71.1025 14.0487 71.0217 14.1171 70.961 14.202L66.644 20.169C66.5443 20.3061 66.5031 20.4771 66.5294 20.6445C66.5556 20.8119 66.6472 20.962 66.784 21.062C66.8514 21.1116 66.9279 21.1473 67.0093 21.1672C67.0906 21.187 67.175 21.1905 67.2577 21.1775C67.3404 21.1645 67.4196 21.1352 67.4909 21.0914C67.5622 21.0475 67.6241 20.9899 67.673 20.922L71.99 14.955C72.0574 14.8611 72.0983 14.7508 72.1083 14.6356C72.1182 14.5204 72.0968 14.4046 72.0464 14.3005C71.9961 14.1965 71.9185 14.1079 71.8219 14.0443C71.7254 13.9807 71.6135 13.9443 71.498 13.939ZM20.335 16.647C20.2089 16.6414 20.084 16.6731 19.9758 16.7382C19.8677 16.8033 19.7812 16.8989 19.7272 17.0129C19.6732 17.127 19.654 17.2544 19.6721 17.3793C19.6902 17.5042 19.7448 17.621 19.829 17.715L21.894 20.021C21.9496 20.0836 22.0171 20.1346 22.0925 20.1709C22.1679 20.2072 22.2498 20.2282 22.3334 20.2327C22.4171 20.2371 22.5007 20.225 22.5796 20.1969C22.6585 20.1688 22.731 20.1253 22.793 20.069C22.9189 19.9552 22.9945 19.7962 23.0033 19.6267C23.0121 19.4572 22.9534 19.2912 22.84 19.165L20.775 16.859C20.7193 16.7963 20.6517 16.7453 20.5762 16.7089C20.5007 16.6725 20.4187 16.6515 20.335 16.647ZM74.707 16.652C74.5385 16.6614 74.3806 16.7373 74.268 16.863L72.202 19.17C72.0886 19.296 72.0299 19.4619 72.0387 19.6312C72.0475 19.8005 72.1231 19.9594 72.249 20.073C72.3109 20.1294 72.3833 20.1729 72.4622 20.2011C72.541 20.2293 72.6247 20.2416 72.7083 20.2372C72.7919 20.2328 72.8738 20.2119 72.9493 20.1757C73.0248 20.1394 73.0923 20.0885 73.148 20.026L75.213 17.72C75.2972 17.626 75.3517 17.5092 75.3698 17.3843C75.3879 17.2594 75.3688 17.132 75.3147 17.0179C75.2607 16.9039 75.1742 16.8083 75.0661 16.7432C74.958 16.6781 74.833 16.6464 74.707 16.652ZM17.22 19.656C17.0937 19.6631 16.9724 19.7074 16.8713 19.7833C16.7703 19.8593 16.6939 19.9634 16.652 20.0827C16.6101 20.202 16.6044 20.331 16.6357 20.4535C16.667 20.576 16.7339 20.6865 16.828 20.771L22.281 25.708C22.3429 25.7643 22.4154 25.8078 22.4943 25.8359C22.5732 25.864 22.6569 25.8762 22.7405 25.8717C22.8241 25.8672 22.906 25.8462 22.9814 25.8099C23.0569 25.7735 23.1244 25.7226 23.18 25.66C23.2933 25.5339 23.352 25.3681 23.3432 25.1988C23.3344 25.0295 23.2588 24.8706 23.133 24.757L17.679 19.82C17.5538 19.7067 17.3887 19.6477 17.22 19.656ZM77.838 19.678C77.7542 19.6734 77.6704 19.6855 77.5915 19.7137C77.5125 19.7418 77.4399 19.7855 77.378 19.842L71.922 24.774C71.8102 24.8903 71.7465 25.0445 71.7436 25.2057C71.7407 25.3669 71.7987 25.5233 71.9061 25.6436C72.0135 25.7639 72.1624 25.8392 72.3229 25.8545C72.4834 25.8698 72.6438 25.8239 72.772 25.726L78.229 20.793C78.323 20.7086 78.3898 20.5982 78.4212 20.4758C78.4526 20.3534 78.447 20.2244 78.4052 20.1052C78.3633 19.9859 78.2872 19.8817 78.1862 19.8057C78.0853 19.7297 77.9641 19.6852 77.838 19.678ZM14.629 23.006C14.4923 23.0019 14.3579 23.0417 14.2455 23.1195C14.1331 23.1973 14.0486 23.3091 14.0043 23.4385C13.96 23.5678 13.9583 23.7079 13.9995 23.8383C14.0406 23.9687 14.1225 24.0825 14.233 24.163L16.73 25.988C16.7975 26.0375 16.8742 26.0732 16.9556 26.0928C17.0369 26.1125 17.1214 26.1158 17.2041 26.1026C17.2868 26.0894 17.366 26.0599 17.4372 26.0159C17.5085 25.9718 17.5702 25.9141 17.619 25.846C17.7185 25.7088 17.7595 25.5378 17.7331 25.3704C17.7067 25.2029 17.6149 25.0528 17.478 24.953L14.981 23.128C14.8786 23.0528 14.7559 23.0102 14.629 23.006ZM80.426 23.029C80.2991 23.0339 80.1766 23.0763 80.074 23.151L77.576 24.974C77.439 25.074 77.3472 25.2242 77.3206 25.3917C77.294 25.5592 77.3347 25.7304 77.434 25.868C77.641 26.154 78.038 26.218 78.323 26.009L80.821 24.187C80.9305 24.106 81.0114 23.9922 81.052 23.8622C81.0926 23.7321 81.0908 23.5926 81.0468 23.4636C81.0028 23.3347 80.9189 23.223 80.8073 23.1449C80.6957 23.0668 80.5622 23.0262 80.426 23.029ZM12.208 26.579C12.0713 26.5889 11.9415 26.6424 11.8375 26.7316C11.7335 26.8208 11.6609 26.941 11.6304 27.0746C11.5998 27.2081 11.6129 27.3479 11.6677 27.4734C11.7226 27.599 11.8162 27.7036 11.935 27.772L18.289 31.461C18.4351 31.5346 18.6039 31.5495 18.7606 31.5025C18.9174 31.4555 19.0502 31.3503 19.1318 31.2084C19.2133 31.0666 19.2374 30.8988 19.1992 30.7397C19.1609 30.5806 19.0631 30.4423 18.926 30.353L12.571 26.664C12.4614 26.5995 12.3348 26.5699 12.208 26.579ZM82.83 26.579C82.7032 26.5699 82.5765 26.5995 82.467 26.664L76.112 30.353C75.9748 30.4423 75.8771 30.5806 75.8388 30.7397C75.8005 30.8988 75.8246 31.0666 75.9062 31.2084C75.9877 31.3503 76.1205 31.4555 76.2773 31.5025C76.434 31.5495 76.6028 31.5346 76.749 31.461L83.104 27.772C83.2227 27.7036 83.3164 27.5989 83.3712 27.4733C83.426 27.3476 83.439 27.2077 83.4083 27.0742C83.3777 26.9406 83.3049 26.8203 83.2008 26.7312C83.0967 26.6421 82.9667 26.5887 82.83 26.579ZM10.378 30.387C10.2306 30.3846 10.0869 30.4332 9.97118 30.5245C9.85546 30.6158 9.7748 30.7442 9.74283 30.8881C9.71085 31.0319 9.72952 31.1825 9.79568 31.3142C9.86185 31.4459 9.97145 31.5508 10.106 31.611L12.925 32.876C13.0784 32.9356 13.2489 32.9339 13.401 32.8711C13.5532 32.8083 13.6753 32.6893 13.742 32.5388C13.8087 32.3883 13.8148 32.2179 13.7591 32.063C13.7034 31.9081 13.5902 31.7806 13.443 31.707L10.624 30.443C10.5465 30.4081 10.4629 30.3891 10.378 30.387ZM84.673 30.414C84.5877 30.4152 84.5036 30.4339 84.426 30.469L81.606 31.732C81.4514 31.8013 81.3306 31.9291 81.2701 32.0873C81.2095 32.2455 81.2142 32.4212 81.283 32.576C81.427 32.9 81.801 33.045 82.123 32.9L84.943 31.638C85.0773 31.5778 85.1868 31.4731 85.253 31.3416C85.3192 31.2101 85.338 31.0598 85.3063 30.9161C85.2745 30.7723 85.1942 30.6439 85.0789 30.5524C84.9635 30.461 84.8202 30.4121 84.673 30.414ZM8.74596 34.368C8.59899 34.3808 8.46095 34.444 8.35521 34.5469C8.24947 34.6498 8.18253 34.786 8.16571 34.9326C8.14889 35.0792 8.18322 35.2271 8.2629 35.3513C8.34258 35.4754 8.46271 35.5682 8.60297 35.614L15.58 37.9C15.7398 37.947 15.9117 37.9298 16.0591 37.852C16.2065 37.7742 16.3177 37.642 16.3691 37.4835C16.4206 37.325 16.4082 37.1527 16.3346 37.0032C16.261 36.8537 16.132 36.7388 15.975 36.683L8.99796 34.397C8.91672 34.3707 8.83106 34.3608 8.74596 34.368ZM86.301 34.395C86.2161 34.3878 86.1307 34.3979 86.05 34.425L79.071 36.706C78.91 36.7588 78.7766 36.8734 78.7001 37.0245C78.6236 37.1757 78.6102 37.351 78.663 37.512C78.772 37.849 79.13 38.032 79.465 37.922L86.443 35.641C86.5832 35.5953 86.7033 35.5026 86.7831 35.3785C86.8628 35.2544 86.8972 35.1066 86.8805 34.96C86.8638 34.8135 86.797 34.6772 86.6914 34.5743C86.5858 34.4713 86.4479 34.408 86.301 34.395ZM7.72996 38.546C7.58308 38.5451 7.44042 38.5951 7.32628 38.6875C7.21213 38.7799 7.13357 38.9091 7.10397 39.053C7.08619 39.135 7.08477 39.2197 7.09979 39.3023C7.11481 39.3849 7.14597 39.4637 7.19149 39.5342C7.23701 39.6047 7.29599 39.6655 7.36505 39.7132C7.43411 39.7609 7.5119 39.7944 7.59396 39.812L10.613 40.457C10.6949 40.4745 10.7794 40.4757 10.8618 40.4604C10.9442 40.4451 11.0226 40.4136 11.0928 40.3677C11.1629 40.3219 11.2232 40.2626 11.2703 40.1933C11.3173 40.124 11.3502 40.0461 11.367 39.964C11.3847 39.882 11.3861 39.7974 11.3711 39.7149C11.3561 39.6324 11.3249 39.5536 11.2794 39.4832C11.2339 39.4128 11.1749 39.3521 11.1058 39.3045C11.0368 39.2569 10.959 39.2234 10.877 39.206L7.85796 38.56C7.81589 38.551 7.773 38.5463 7.72996 38.546ZM87.31 38.552C87.2667 38.5532 87.2235 38.5579 87.181 38.566L84.162 39.211C84.08 39.2286 84.0023 39.2621 83.9333 39.3098C83.8643 39.3574 83.8054 39.4181 83.7599 39.4885C83.7144 39.5589 83.6832 39.6375 83.6681 39.72C83.653 39.8024 83.6543 39.887 83.672 39.969C83.745 40.316 84.082 40.536 84.426 40.462L87.446 39.817C87.5279 39.7994 87.6056 39.7659 87.6746 39.7183C87.7436 39.6707 87.8025 39.6099 87.848 39.5396C87.8935 39.4692 87.9247 39.3905 87.9398 39.308C87.9549 39.2256 87.9536 39.141 87.936 39.059C87.9064 38.9152 87.8278 38.786 87.7137 38.6935C87.5995 38.6011 87.4568 38.5511 87.31 38.552ZM6.95997 42.749C6.81373 42.7636 6.67704 42.8283 6.57313 42.9322C6.46921 43.0361 6.4045 43.1727 6.38997 43.319C6.38081 43.4023 6.3882 43.4867 6.41171 43.5672C6.43523 43.6477 6.4744 43.7227 6.52698 43.788C6.57957 43.8533 6.64453 43.9077 6.71815 43.9478C6.79176 43.988 6.87258 44.0131 6.95596 44.022L14.253 44.798C14.3363 44.8068 14.4206 44.7991 14.501 44.7753C14.5814 44.7514 14.6562 44.7119 14.7213 44.6591C14.7864 44.6062 14.8403 44.541 14.8801 44.4672C14.9198 44.3934 14.9446 44.3124 14.953 44.229C14.9712 44.0606 14.9218 43.8918 14.8157 43.7598C14.7095 43.6278 14.5553 43.5434 14.387 43.525L7.08997 42.75C7.04678 42.7452 7.00322 42.7449 6.95997 42.749ZM88.084 42.804C88.0411 42.7999 87.9978 42.8002 87.955 42.805L80.657 43.571C80.5736 43.5797 80.4928 43.6048 80.4191 43.6448C80.3454 43.6849 80.2804 43.739 80.2277 43.8043C80.175 43.8695 80.1358 43.9445 80.1121 44.0249C80.0885 44.1053 80.081 44.1897 80.09 44.273C80.0981 44.3565 80.1226 44.4375 80.1622 44.5114C80.2018 44.5853 80.2557 44.6507 80.3207 44.7037C80.3857 44.7567 80.4605 44.7963 80.5409 44.8202C80.6213 44.8441 80.7056 44.8519 80.789 44.843L88.087 44.077C88.1703 44.0682 88.2511 44.0429 88.3247 44.0029C88.3983 43.9628 88.4632 43.9086 88.5159 43.8434C88.5685 43.7783 88.6078 43.7034 88.6315 43.623C88.6552 43.5426 88.6628 43.4583 88.654 43.375C88.6395 43.2287 88.5748 43.0918 88.4709 42.9877C88.367 42.8837 88.2303 42.8188 88.084 42.804ZM6.83697 47.051C6.75315 47.0512 6.67018 47.0678 6.59281 47.1C6.51545 47.1323 6.44521 47.1796 6.38612 47.239C6.32704 47.2985 6.28027 47.369 6.2485 47.4465C6.21672 47.5241 6.20057 47.6072 6.20097 47.691C6.20097 48.045 6.48397 48.331 6.83697 48.331H9.92396C10.0078 48.3309 10.0908 48.3142 10.1681 48.2819C10.2455 48.2497 10.3157 48.2025 10.3748 48.143C10.4339 48.0835 10.4807 48.0131 10.5124 47.9355C10.5442 47.8579 10.5604 47.7748 10.56 47.691C10.5604 47.6072 10.5442 47.5241 10.5124 47.4465C10.4807 47.369 10.4339 47.2985 10.3748 47.239C10.3157 47.1796 10.2455 47.1323 10.1681 47.1C10.0908 47.0678 10.0078 47.0512 9.92396 47.051H6.83697ZM85.114 47.051C85.0301 47.0512 84.9472 47.0678 84.8698 47.1C84.7924 47.1323 84.7222 47.1796 84.6631 47.239C84.604 47.2985 84.5573 47.369 84.5255 47.4465C84.4937 47.5241 84.4776 47.6072 84.478 47.691C84.478 48.045 84.762 48.331 85.114 48.331H88.201C88.2848 48.3309 88.3678 48.3142 88.4451 48.2819C88.5225 48.2497 88.5927 48.2025 88.6518 48.143C88.7109 48.0835 88.7577 48.0131 88.7894 47.9355C88.8212 47.8579 88.8374 47.7748 88.837 47.691C88.8374 47.6072 88.8212 47.5241 88.7894 47.4465C88.7577 47.369 88.7109 47.2985 88.6518 47.239C88.5927 47.1796 88.5225 47.1323 88.4451 47.1C88.3678 47.0678 88.2848 47.0512 88.201 47.051H85.114ZM14.378 50.538C14.335 50.5339 14.2918 50.5342 14.249 50.539L6.95097 51.305C6.86759 51.3137 6.78675 51.3388 6.7131 51.3788C6.63944 51.4189 6.5744 51.4731 6.52173 51.5383C6.46905 51.6035 6.42977 51.6785 6.40613 51.7589C6.38249 51.8393 6.37495 51.9237 6.38396 52.007C6.39208 52.0905 6.41665 52.1715 6.45624 52.2454C6.49584 52.3193 6.5497 52.3847 6.61468 52.4377C6.67967 52.4907 6.75452 52.5303 6.83489 52.5542C6.91527 52.5781 6.99958 52.5859 7.08297 52.577L14.381 51.811C14.4643 51.8021 14.5451 51.777 14.6187 51.7369C14.6922 51.6968 14.7572 51.6426 14.8099 51.5775C14.8625 51.5123 14.9018 51.4373 14.9255 51.3569C14.9492 51.2766 14.9568 51.1923 14.948 51.109C14.9335 50.9627 14.8688 50.8258 14.7649 50.7217C14.661 50.6177 14.5243 50.5528 14.378 50.538ZM80.656 50.584C80.5098 50.5983 80.3731 50.6629 80.2692 50.7666C80.1653 50.8703 80.1005 51.0069 80.086 51.153C80.0768 51.2363 80.0842 51.3206 80.1076 51.4011C80.131 51.4816 80.1701 51.5567 80.2226 51.6221C80.275 51.6875 80.3399 51.7419 80.4134 51.7822C80.4869 51.8225 80.5676 51.8479 80.651 51.857L87.948 52.632C88.0314 52.641 88.1157 52.6333 88.1961 52.6096C88.2766 52.5858 88.3515 52.5463 88.4166 52.4934C88.4816 52.4405 88.5356 52.3752 88.5753 52.3013C88.615 52.2275 88.6397 52.1465 88.648 52.063C88.6571 51.9796 88.6497 51.8953 88.6262 51.8148C88.6027 51.7343 88.5635 51.6593 88.5109 51.594C88.4584 51.5287 88.3934 51.4744 88.3198 51.4342C88.2462 51.3941 88.1654 51.3688 88.082 51.36L80.785 50.584C80.7421 50.58 80.6989 50.58 80.656 50.584ZM10.74 54.905C10.6969 54.9053 10.654 54.91 10.612 54.919L7.59296 55.564C7.51091 55.5815 7.43311 55.6149 7.36401 55.6625C7.29491 55.71 7.23587 55.7708 7.19027 55.8412C7.14466 55.9116 7.11339 55.9903 7.09824 56.0728C7.08308 56.1553 7.08435 56.24 7.10197 56.322C7.17597 56.669 7.51196 56.889 7.85696 56.815L10.876 56.17C10.958 56.1525 11.0358 56.1191 11.1048 56.0715C11.1739 56.024 11.2329 55.9632 11.2784 55.8928C11.3239 55.8223 11.3551 55.7436 11.3701 55.6611C11.3851 55.5786 11.3837 55.4939 11.366 55.412C11.3365 55.268 11.258 55.1388 11.1438 55.0463C11.0297 54.9538 10.8869 54.9039 10.74 54.905ZM84.297 54.911C84.1501 54.9101 84.0074 54.9601 83.8933 55.0526C83.7791 55.145 83.7006 55.2742 83.671 55.418C83.6353 55.5837 83.6669 55.7566 83.7588 55.8989C83.8507 56.0413 83.9954 56.1413 84.161 56.177L87.18 56.822C87.2619 56.8396 87.3465 56.8407 87.4288 56.8254C87.5112 56.8101 87.5896 56.7786 87.6598 56.7327C87.7299 56.6869 87.7902 56.6276 87.8373 56.5583C87.8843 56.489 87.9172 56.411 87.934 56.329C87.9517 56.247 87.9532 56.1623 87.9381 56.0797C87.9231 55.9971 87.892 55.9183 87.8465 55.8478C87.8009 55.7773 87.7419 55.7165 87.6729 55.6688C87.6038 55.6211 87.526 55.5876 87.444 55.57L84.425 54.925C84.3829 54.9159 84.34 54.9113 84.297 54.911ZM15.825 57.43C15.7398 57.4227 15.654 57.4329 15.573 57.46L8.59496 59.741C8.43401 59.7939 8.30062 59.9084 8.22411 60.0596C8.14761 60.2107 8.13425 60.386 8.18697 60.547C8.29597 60.884 8.65297 61.067 8.98797 60.957L15.967 58.677C16.1078 58.6317 16.2286 58.5391 16.3088 58.4148C16.389 58.2905 16.4237 58.1423 16.4069 57.9953C16.3902 57.8483 16.3231 57.7117 16.217 57.6086C16.1109 57.5056 15.9724 57.4425 15.825 57.43ZM79.206 57.453C79.0811 57.4639 78.9622 57.5115 78.8644 57.5898C78.7665 57.6681 78.694 57.7736 78.656 57.893C78.6032 58.054 78.6166 58.2293 78.6931 58.3804C78.7696 58.5316 78.903 58.6461 79.064 58.699L86.041 60.985C86.2004 61.0304 86.3713 61.0122 86.5175 60.9341C86.6638 60.8561 86.7741 60.7243 86.8252 60.5666C86.8762 60.4089 86.8641 60.2375 86.7913 60.0885C86.7185 59.9395 86.5908 59.8247 86.435 59.768L79.458 57.483C79.3769 57.4559 79.2911 57.4457 79.206 57.453ZM13.162 62.426C13.0767 62.428 12.9927 62.447 12.915 62.482L10.095 63.744C9.94877 63.8181 9.83658 63.9455 9.78152 64.0999C9.72645 64.2542 9.7327 64.4238 9.799 64.5737C9.86529 64.7236 9.98656 64.8424 10.1378 64.9055C10.2891 64.9686 10.4588 64.9713 10.612 64.913L13.432 63.651C13.5669 63.5912 13.6771 63.4865 13.7437 63.3548C13.8103 63.2231 13.8294 63.0723 13.7976 62.9282C13.7658 62.784 13.6852 62.6552 13.5693 62.5637C13.4535 62.4722 13.3096 62.4236 13.162 62.426ZM81.866 62.451C81.7187 62.4488 81.5751 62.4976 81.4596 62.5889C81.3441 62.6803 81.2636 62.8088 81.2318 62.9526C81.1999 63.0964 81.2187 63.2468 81.2848 63.3784C81.351 63.51 81.4605 63.6148 81.595 63.675L84.413 64.939C84.566 64.9973 84.7355 64.9947 84.8867 64.9318C85.0378 64.8689 85.1591 64.7504 85.2256 64.6008C85.2921 64.4511 85.2987 64.2817 85.2441 64.1274C85.1895 63.973 85.0778 63.8455 84.932 63.771L82.113 62.506C82.0353 62.4709 81.9512 62.4521 81.866 62.451ZM18.652 63.837C18.5253 63.828 18.3988 63.8573 18.289 63.921L11.935 67.611C11.7962 67.6993 11.6968 67.8377 11.6575 67.9974C11.6182 68.1571 11.642 68.3258 11.724 68.4684C11.8059 68.6111 11.9397 68.7166 12.0974 68.7631C12.2552 68.8095 12.4248 68.7934 12.571 68.718L18.926 65.03C19.0447 64.9616 19.1384 64.8569 19.1932 64.7313C19.248 64.6056 19.261 64.4657 19.2303 64.3322C19.1997 64.1986 19.1269 64.0783 19.0228 63.9892C18.9187 63.9001 18.7887 63.8467 18.652 63.837ZM76.386 63.837C76.2493 63.8467 76.1193 63.9001 76.0152 63.9892C75.911 64.0783 75.8383 64.1986 75.8076 64.3322C75.7769 64.4657 75.7899 64.6056 75.8447 64.7313C75.8995 64.8569 75.9932 64.9616 76.112 65.03L82.467 68.718C82.5392 68.7603 82.6192 68.7878 82.7022 68.7989C82.7852 68.81 82.8696 68.8045 82.9504 68.7827C83.0313 68.7609 83.107 68.7233 83.1732 68.6721C83.2394 68.6208 83.2947 68.5569 83.336 68.484C83.3782 68.4115 83.4056 68.3313 83.4168 68.2482C83.428 68.165 83.4226 68.0805 83.4011 67.9994C83.3795 67.9183 83.3422 67.8422 83.2912 67.7756C83.2402 67.7089 83.1766 67.653 83.104 67.611L76.749 63.921C76.6391 63.8573 76.5127 63.828 76.386 63.837ZM17.067 69.25C16.94 69.2552 16.8175 69.298 16.715 69.373L14.217 71.195C14.08 71.295 13.9882 71.4452 13.9616 71.6127C13.935 71.7802 13.9757 71.9514 14.075 72.089C14.282 72.376 14.679 72.439 14.964 72.231L17.462 70.408C17.5728 70.3277 17.655 70.2139 17.6965 70.0834C17.7379 69.953 17.7364 69.8127 17.6922 69.6831C17.648 69.5535 17.5635 69.4415 17.4509 69.3636C17.3384 69.2856 17.2038 69.2458 17.067 69.25ZM77.956 69.272C77.8197 69.269 77.686 69.3094 77.5742 69.3875C77.4624 69.4655 77.3784 69.5771 77.3343 69.7061C77.2902 69.8351 77.2882 69.9748 77.3288 70.1049C77.3694 70.2351 77.4504 70.3489 77.56 70.43L80.057 72.254C80.1245 72.3035 80.2012 72.3392 80.2826 72.3588C80.364 72.3785 80.4484 72.3818 80.5311 72.3686C80.6138 72.3554 80.693 72.3259 80.7643 72.2819C80.8355 72.2378 80.8972 72.1801 80.946 72.112C81.0455 71.9748 81.0866 71.8038 81.0601 71.6364C81.0337 71.4689 80.9419 71.3188 80.805 71.219L78.308 69.395C78.2059 69.3192 78.0831 69.2763 77.956 69.272ZM22.725 69.493C22.6414 69.4884 22.5578 69.5006 22.4789 69.5287C22.4001 69.5569 22.3277 69.6005 22.266 69.657L16.809 74.589C16.6832 74.7026 16.6076 74.8614 16.5986 75.0306C16.5896 75.1998 16.648 75.3657 16.761 75.492C16.8166 75.5546 16.8841 75.6056 16.9595 75.6419C17.0349 75.6782 17.1168 75.6992 17.2004 75.7037C17.2841 75.7081 17.3677 75.696 17.4466 75.6679C17.5255 75.6398 17.598 75.5963 17.66 75.54L23.117 70.608C23.211 70.5235 23.2779 70.413 23.3092 70.2905C23.3405 70.168 23.3349 70.039 23.2929 69.9197C23.251 69.8005 23.1747 69.6962 23.0736 69.6203C22.9725 69.5444 22.8512 69.5001 22.725 69.493ZM72.298 69.51C72.1717 69.5169 72.0502 69.5611 71.949 69.637C71.8477 69.7128 71.7713 69.817 71.7292 69.9363C71.6872 70.0556 71.6814 70.1847 71.7127 70.3073C71.744 70.4299 71.8109 70.5404 71.905 70.625L77.359 75.562C77.4209 75.6183 77.4934 75.6618 77.5723 75.6899C77.6512 75.718 77.7349 75.7302 77.8185 75.7257C77.9021 75.7212 77.984 75.7002 78.0594 75.6639C78.1349 75.6275 78.2024 75.5766 78.258 75.514C78.3709 75.3877 78.4293 75.2218 78.4203 75.0526C78.4113 74.8834 78.3357 74.7246 78.21 74.611L72.757 69.675C72.6951 69.6186 72.6227 69.5751 72.5439 69.5468C72.4651 69.5184 72.3816 69.506 72.298 69.51ZM27.902 74.196C27.7977 74.1925 27.6941 74.2148 27.6004 74.2608C27.5068 74.3069 27.4259 74.3753 27.365 74.46L23.049 80.426C22.949 80.5632 22.9076 80.7343 22.9339 80.902C22.9601 81.0696 23.0519 81.22 23.189 81.32C23.2563 81.3695 23.3329 81.4052 23.4142 81.4249C23.4954 81.4447 23.5798 81.4481 23.6624 81.435C23.745 81.4219 23.8242 81.3925 23.8953 81.3485C23.9665 81.3046 24.0282 81.247 24.077 81.179L28.394 75.213C28.4621 75.1192 28.5035 75.0087 28.5137 74.8932C28.524 74.7777 28.5027 74.6617 28.4523 74.5573C28.4018 74.453 28.3239 74.3642 28.227 74.3006C28.1301 74.237 28.0178 74.2008 27.902 74.196ZM67.1 74.223C66.9841 74.2275 66.8716 74.2633 66.7745 74.3267C66.6774 74.3902 66.5994 74.4788 66.5487 74.5831C66.4981 74.6875 66.4768 74.8036 66.487 74.9191C66.4973 75.0346 66.5387 75.1452 66.607 75.239L70.916 81.211C71.122 81.498 71.519 81.561 71.804 81.353C71.9409 81.2532 72.0327 81.1031 72.0591 80.9357C72.0855 80.7683 72.0445 80.5972 71.945 80.46L67.637 74.488C67.5762 74.403 67.4954 74.3343 67.4017 74.2881C67.308 74.2419 67.2044 74.2195 67.1 74.223ZM22.33 75.145C22.2464 75.1495 22.1645 75.1705 22.089 75.2067C22.0135 75.2429 21.9458 75.2937 21.89 75.356L19.825 77.663C19.7116 77.7891 19.6529 77.9549 19.6617 78.1242C19.6705 78.2935 19.7461 78.4524 19.872 78.566C19.9338 78.6223 20.0062 78.6659 20.0849 78.694C20.1637 78.7222 20.2473 78.7345 20.3308 78.7301C20.4143 78.7257 20.4962 78.7048 20.5715 78.6686C20.6469 78.6323 20.7144 78.5815 20.77 78.519L22.836 76.212C22.9203 76.1181 22.975 76.0014 22.9932 75.8765C23.0114 75.7516 22.9922 75.6241 22.9381 75.5101C22.8841 75.396 22.7975 75.3006 22.6893 75.2356C22.581 75.1706 22.456 75.1391 22.33 75.145ZM72.704 75.148C72.5781 75.1426 72.4534 75.1744 72.3455 75.2394C72.2376 75.3045 72.1512 75.3999 72.0972 75.5137C72.0432 75.6276 72.024 75.7549 72.0419 75.8796C72.0598 76.0043 72.1141 76.121 72.198 76.215L74.263 78.522C74.3187 78.5845 74.3862 78.6354 74.4617 78.6716C74.5371 78.7079 74.619 78.7288 74.7027 78.7332C74.7863 78.7375 74.8699 78.7253 74.9488 78.6971C75.0276 78.6689 75.1001 78.6254 75.162 78.569C75.2878 78.4554 75.3634 78.2965 75.3722 78.1272C75.381 77.9579 75.3223 77.7921 75.209 77.666L73.144 75.359C73.0883 75.2963 73.0208 75.2454 72.9452 75.2092C72.8697 75.1729 72.7877 75.1522 72.704 75.148ZM33.93 77.706C33.8046 77.7035 33.6813 77.7383 33.5757 77.8059C33.4702 77.8736 33.3871 77.971 33.337 78.086L30.347 84.824C30.2778 84.9787 30.2728 85.1547 30.3332 85.3131C30.3936 85.4715 30.5143 85.5995 30.669 85.669C30.991 85.813 31.366 85.669 31.509 85.345L34.499 78.607C34.542 78.5107 34.5606 78.4053 34.5531 78.3001C34.5455 78.1949 34.5121 78.0933 34.4558 78.0041C34.3995 77.9149 34.322 77.8411 34.2303 77.7891C34.1386 77.7371 34.0354 77.7085 33.93 77.706ZM61.067 77.725C60.9616 77.7274 60.8584 77.7559 60.7667 77.8077C60.6749 77.8596 60.5974 77.9334 60.541 78.0224C60.4846 78.1114 60.4511 78.2131 60.4434 78.3182C60.4357 78.4233 60.4541 78.5287 60.497 78.625L63.478 85.367C63.5116 85.4437 63.56 85.5129 63.6205 85.5707C63.681 85.6286 63.7524 85.6739 63.8305 85.704C63.9086 85.7341 63.9918 85.7484 64.0755 85.7462C64.1592 85.744 64.2416 85.7252 64.318 85.691C64.4725 85.6217 64.5933 85.494 64.6539 85.3358C64.7144 85.1775 64.7098 85.0018 64.641 84.847L61.66 78.105C61.6098 77.9901 61.5266 77.8927 61.4211 77.8251C61.3155 77.7574 61.1923 77.7226 61.067 77.725ZM28.677 79.79C28.5727 79.7971 28.4718 79.8299 28.3833 79.8856C28.2948 79.9413 28.2215 80.0181 28.17 80.109L26.627 82.796C26.5421 82.9428 26.5189 83.1173 26.5626 83.2812C26.6063 83.4451 26.7133 83.5849 26.86 83.67C26.9323 83.7121 27.0122 83.7395 27.0952 83.7505C27.1781 83.7616 27.2625 83.7561 27.3433 83.7343C27.4241 83.7126 27.4998 83.675 27.566 83.6238C27.6322 83.5726 27.6876 83.5087 27.729 83.436L29.272 80.748C29.3297 80.6477 29.3591 80.5337 29.3572 80.418C29.3553 80.3024 29.322 80.1893 29.261 80.0911C29.1999 79.9928 29.1134 79.9129 29.0105 79.8599C28.9077 79.8069 28.7924 79.7827 28.677 79.79ZM66.361 79.79C66.2456 79.783 66.1305 79.8074 66.0279 79.8605C65.9253 79.9136 65.8389 79.9935 65.7779 80.0917C65.7169 80.1898 65.6836 80.3026 65.6815 80.4182C65.6794 80.5337 65.7086 80.6477 65.766 80.748L67.309 83.436C67.3503 83.5087 67.4057 83.5726 67.4719 83.6238C67.5381 83.675 67.6138 83.7126 67.6946 83.7343C67.7755 83.7561 67.8598 83.7616 67.9427 83.7505C68.0257 83.7395 68.1057 83.7121 68.178 83.67C68.3247 83.5849 68.4316 83.4451 68.4753 83.2812C68.519 83.1173 68.4959 82.9428 68.411 82.796L66.868 80.109C66.8164 80.0181 66.7431 79.9414 66.6546 79.8857C66.5661 79.8301 66.4652 79.7972 66.361 79.79ZM40.586 79.886C40.4391 79.8851 40.2964 79.9351 40.1823 80.0275C40.0681 80.12 39.9896 80.2491 39.96 80.393L38.435 87.61C38.3993 87.7756 38.431 87.9486 38.5228 88.0909C38.6147 88.2333 38.7594 88.3333 38.925 88.369C39.0069 88.3866 39.0914 88.3877 39.1738 88.3724C39.2561 88.357 39.3346 88.3256 39.4048 88.2797C39.4749 88.2339 39.5352 88.1746 39.5823 88.1053C39.6293 88.036 39.6622 87.958 39.679 87.876L41.204 80.659C41.224 80.5664 41.2232 80.4704 41.2015 80.3782C41.1799 80.2859 41.1379 80.1996 41.0787 80.1255C41.0196 80.0515 40.9446 79.9916 40.8594 79.9502C40.7741 79.9088 40.6807 79.8868 40.586 79.886ZM54.43 79.891C54.3354 79.8919 54.2422 79.9138 54.1571 79.9551C54.072 79.9965 53.9971 80.0562 53.9379 80.1299C53.8787 80.2037 53.8366 80.2897 53.8146 80.3817C53.7927 80.4737 53.7914 80.5694 53.811 80.662L55.331 87.881C55.3484 87.9627 55.3817 88.0401 55.429 88.1089C55.4764 88.1778 55.5368 88.2365 55.6068 88.282C55.6769 88.3274 55.7552 88.3587 55.8374 88.3738C55.9195 88.389 56.0038 88.3879 56.0855 88.3705C56.1671 88.3531 56.2446 88.3198 56.3134 88.2725C56.3822 88.2251 56.441 88.1647 56.4865 88.0946C56.5319 88.0245 56.5631 87.9463 56.5783 87.8641C56.5935 87.782 56.5924 87.6977 56.575 87.616L55.055 80.398C55.0257 80.2541 54.9474 80.1249 54.8334 80.0324C54.7194 79.9399 54.5768 79.8899 54.43 79.891ZM47.519 80.619C47.4352 80.619 47.3522 80.6356 47.2749 80.6677C47.1975 80.6999 47.1273 80.747 47.0682 80.8063C47.0091 80.8657 46.9623 80.9362 46.9305 81.0137C46.8987 81.0912 46.8826 81.1742 46.883 81.258V88.636C46.8781 88.7225 46.891 88.8091 46.9207 88.8905C46.9505 88.9719 46.9966 89.0463 47.0561 89.1093C47.1156 89.1723 47.1874 89.2224 47.267 89.2567C47.3466 89.291 47.4323 89.3087 47.519 89.3087C47.6056 89.3087 47.6914 89.291 47.771 89.2567C47.8505 89.2224 47.9223 89.1723 47.9818 89.1093C48.0414 89.0463 48.0874 88.9719 48.1172 88.8905C48.147 88.8091 48.1598 88.7225 48.155 88.636V81.258C48.1554 81.1742 48.1392 81.0912 48.1074 81.0137C48.0756 80.9362 48.0289 80.8657 47.9698 80.8063C47.9107 80.747 47.8404 80.6999 47.763 80.6677C47.6857 80.6356 47.6027 80.619 47.519 80.619ZM35.841 83.003C35.7161 83.0139 35.5972 83.0615 35.4994 83.1398C35.4015 83.2181 35.329 83.3236 35.291 83.443L34.337 86.395C34.2842 86.556 34.2976 86.7313 34.3741 86.8824C34.4506 87.0336 34.584 87.1482 34.745 87.201C34.8246 87.227 34.9086 87.237 34.9921 87.2303C35.0756 87.2237 35.157 87.2006 35.2315 87.1624C35.3061 87.1242 35.3723 87.0717 35.4265 87.0078C35.4806 86.9438 35.5215 86.8698 35.547 86.79L36.501 83.838C36.5336 83.7379 36.541 83.6312 36.5225 83.5275C36.504 83.4238 36.4601 83.3262 36.3948 83.2436C36.3294 83.1609 36.2447 83.0957 36.1481 83.0538C36.0515 83.0118 35.946 82.9943 35.841 83.003ZM59.192 83.004C59.0869 82.9953 58.9812 83.0127 58.8845 83.0547C58.7878 83.0968 58.7029 83.1621 58.6376 83.2449C58.5722 83.3277 58.5284 83.4253 58.51 83.5292C58.4915 83.633 58.4991 83.7398 58.532 83.84L59.486 86.791C59.595 87.128 59.952 87.311 60.287 87.202C60.3668 87.176 60.4406 87.1344 60.5044 87.0798C60.5681 87.0252 60.6205 86.9586 60.6584 86.8837C60.6964 86.8089 60.7193 86.7273 60.7257 86.6436C60.7322 86.5599 60.7221 86.4758 60.696 86.396L59.742 83.444C59.7038 83.3246 59.6313 83.2192 59.5334 83.1409C59.4356 83.0626 59.3168 83.015 59.192 83.004ZM43.526 84.648C43.3798 84.6627 43.2432 84.7275 43.1393 84.8314C43.0355 84.9352 42.9707 85.0719 42.956 85.218L42.633 88.305C42.6153 88.4727 42.665 88.6406 42.7712 88.7717C42.8773 88.9028 43.0312 88.9864 43.199 89.004C43.3667 89.0217 43.5346 88.9719 43.6657 88.8658C43.7968 88.7596 43.8803 88.6057 43.898 88.438L44.221 85.352C44.2312 85.2578 44.2203 85.1626 44.1891 85.0731C44.158 84.9837 44.1073 84.9023 44.0407 84.8349C43.9742 84.7675 43.8935 84.7157 43.8044 84.6834C43.7154 84.6511 43.6203 84.639 43.526 84.648ZM51.487 84.651C51.3926 84.6417 51.2974 84.6535 51.2083 84.6856C51.1191 84.7177 51.0382 84.7694 50.9715 84.8367C50.9048 84.9041 50.854 84.9855 50.8228 85.075C50.7916 85.1644 50.7807 85.2598 50.791 85.354L51.111 88.441C51.1197 88.5241 51.1447 88.6047 51.1846 88.6782C51.2245 88.7516 51.2784 88.8165 51.3434 88.8691C51.4083 88.9217 51.483 88.961 51.5632 88.9847C51.6433 89.0085 51.7273 89.0162 51.8105 89.0075C51.8936 88.9988 51.9742 88.9737 52.0476 88.9338C52.1211 88.894 52.186 88.84 52.2386 88.7751C52.2912 88.7101 52.3305 88.6354 52.3542 88.5553C52.378 88.4752 52.3857 88.3911 52.377 88.308L52.056 85.222C52.0417 85.0757 51.9772 84.9389 51.8735 84.8348C51.7698 84.7307 51.6332 84.6658 51.487 84.651Z" fill="#F4F2F3"/>
          <g opacity="0.409" filter="url(#filter0_f_227_1882)">
            <path d="M77.335 22.104L42.529 42.437L20.523 77.272L52.716 53.295L77.335 22.104Z" fill="black"/>
          </g>
          <path d="M52.507 52.942L42.531 42.437L77.921 18.499L52.507 52.942Z" fill="#FF5150"/>
          <path d="M52.507 52.942L42.531 42.437L17.117 76.88L52.507 52.942Z" fill="#F1F1F1"/>
          <path opacity="0.243" d="M17.117 76.88L52.507 52.942L77.921 18.499L17.117 76.88Z" fill="black"/>
        </g>
      </g>
      <defs>
        <filter id="filter0_f_227_1882" x="17.979" y="19.56" width="61.9" height="60.256" filterUnits="userSpaceOnUse" color-interpolation-filters="sRGB">
          <feFlood flood-opacity="0" result="BackgroundImageFix"/>
          <feBlend mode="normal" in="SourceGraphic" in2="BackgroundImageFix" result="shape"/>
          <feGaussianBlur stdDeviation="1.272" result="effect1_foregroundBlur_227_1882"/>
        </filter>
        <linearGradient id="paint0_linear_227_1882" x1="47.517" y1="95.2929" x2="47.517" y2="0.0859375" gradientUnits="userSpaceOnUse">
          <stop stop-color="#BDBDBD"/>
          <stop offset="1" stop-color="white"/>
        </linearGradient>
        <radialGradient id="paint1_radial_227_1882" cx="0" cy="0" r="1" gradientUnits="userSpaceOnUse" gradientTransform="translate(47.716 41.2919) scale(47.3433 47.6037)">
          <stop stop-color="#06C2E7"/>
          <stop offset="0.25" stop-color="#0DB8EC"/>
          <stop offset="0.5" stop-color="#12AEF1"/>
          <stop offset="0.75" stop-color="#1F86F9"/>
          <stop offset="1" stop-color="#107DDD"/>
        </radialGradient>
        <clipPath id="clip0_227_1882">
          <rect width="95.038" height="95.748" fill="white"/>
        </clipPath>
      </defs>
    </symbol>
    <svg id="none" viewBox="0 0 96 96" fill="none">
      <rect x="94" y="94" width="92" height="92" rx="46" transform="rotate(-180 94 94)" fill="url(#paint0_linear_237_2061)"/>
      <rect x="18" y="18" width="60" height="60" rx="30" fill="url(#paint1_linear_237_2061)"/>
      <defs>
        <linearGradient id="paint0_linear_237_2061" x1="94" y1="94" x2="186" y2="186" gradientUnits="userSpaceOnUse">
          <stop stop-color="#D9D9D9"/>
          <stop offset="1" stop-color="#737373"/>
        </linearGradient>
        <linearGradient id="paint1_linear_237_2061" x1="18" y1="18" x2="78" y2="78" gradientUnits="userSpaceOnUse">
          <stop stop-color="#D9D9D9"/>
          <stop offset="1" stop-color="#737373"/>
        </linearGradient>
      </defs>
    </svg>
  </defs>
</svg>